<svg width="122" height="146" viewBox="0 0 122 146" fill="none" xmlns="http://www.w3.org/2000/svg">
<g filter="url(#filter0_d_366_14)">
<path d="M96.7868 60.8747C96.7868 81.5238 83.6348 95.4744 63.9341 95.4744C19.6314 98.9605 28.1749 91.3782 25.4445 60.8747C25.4445 40.2255 41.415 23.4861 61.1157 23.4861C80.8163 23.4861 96.7868 40.2255 96.7868 60.8747Z" fill="url(#paint0_linear_366_14)"/>
<path d="M21.4698 101.73C20.9237 101.821 20.7759 101.587 20.9125 101.07C21.0527 100.539 21.3408 100.041 21.2847 99.4644C21.3389 99.3887 21.4193 99.3225 21.4437 99.2374C22.8128 94.2214 24.1315 89.1921 25.5642 84.1949C26.1403 82.1862 26.7052 80.2702 25.1247 78.4715C25.1041 78.4488 25.0985 78.4147 25.0854 78.3864C23.4114 74.7265 22.1469 70.9399 21.5503 66.9357C21.2417 64.8608 20.9199 62.7595 20.976 60.6884C21.0303 58.674 21.0696 56.6331 21.4343 54.6131C22.0983 50.9305 23.0073 47.3595 24.5692 43.9398C27.0849 38.4301 30.5939 33.728 35.1222 29.7542C38.3973 26.8811 42.0372 24.6303 46.025 22.9772C52.1937 20.4181 58.615 19.5462 65.2606 20.2176C68.893 20.5846 72.402 21.3809 75.8099 22.6992C79.8838 24.2747 83.5386 26.552 86.9166 29.3135C87.1616 29.5064 87.4067 29.6993 87.6517 29.8904C87.7789 30.0133 87.9061 30.1362 88.0314 30.2592C89.1069 31.2522 90.102 32.3208 91.0877 33.4084C93.4594 36.0204 95.4309 38.9086 97.0133 42.0484C100.152 48.2787 101.572 54.8912 101.343 61.9121C101.199 66.3248 100.391 70.5559 98.9043 74.6792C97.204 79.3983 94.6977 83.654 91.4076 87.3952C88.4186 90.7941 84.9826 93.6653 81.0416 95.9293C75.8212 98.9272 70.2285 100.709 64.273 101.11C59.2921 101.445 54.3335 101.078 49.5246 99.4757C47.2464 98.7154 45.0112 97.8642 42.892 96.7388C42.2654 96.4059 41.7436 96.336 41.0702 96.5213C37.5108 97.503 33.9382 98.4316 30.3713 99.3887C27.7714 100.087 25.1378 100.658 22.5884 101.537C22.1937 101.471 21.8439 101.668 21.4698 101.732V101.73ZM28.1548 56.3457C27.5806 59.44 27.7508 62.5287 28.2296 65.6155C28.6748 69.1506 29.7166 72.4908 31.3776 75.6344C31.7423 76.6368 32.2623 77.5636 32.8627 78.428C33.4874 79.3264 33.8054 80.2248 33.3864 81.2916C32.9132 82.9352 32.44 84.5789 31.9668 86.2225C31.5197 87.87 31.0596 89.5136 30.6369 91.1667C30.5677 91.441 30.2291 91.7549 30.5359 92.0216C30.7846 92.2372 31.1082 92.067 31.4131 91.9838C35.0137 91.0154 38.6162 90.0602 42.2243 89.1183C42.6751 89.001 43.1296 89.0143 43.5672 89.281C50.0521 93.2473 57.0531 94.9477 64.6172 94.1892C68.1617 93.8355 71.5435 92.8898 74.7812 91.4031C77.7627 90.0337 80.4842 88.2558 82.9625 86.0939C84.5673 84.6054 86.1217 83.0676 87.489 81.3483C89.1088 79.5515 90.0982 77.3556 91.2617 75.2674C92.8946 71.9215 94.0767 68.4451 94.2226 64.6736C94.6977 64.1553 94.303 63.5444 94.3946 62.9808C94.8585 60.1777 94.6172 57.3992 94.0673 54.6358C93.6577 51.9424 92.8908 49.3587 91.7386 46.8923C91.1663 45.4662 90.5509 44.0666 89.539 42.8863C88.8918 41.5888 87.9921 40.4634 87.1299 39.3153C86.5762 38.6609 86.0469 37.98 85.4633 37.3539C84.0399 35.8294 82.4444 34.5035 80.7872 33.2514C80.6226 33.1114 80.4692 32.9545 80.2915 32.8315C72.185 27.2537 63.3172 25.5685 53.7686 27.6717C49.1561 28.6874 44.9308 30.6488 41.2049 33.6278C38.8537 35.332 36.7832 37.3274 35.0717 39.6936C33.1489 41.882 31.7741 44.4051 30.6556 47.0834C29.3238 50.0321 28.4298 53.1019 28.1511 56.3419L28.1548 56.3457Z" fill="#FDFEFD"/>
<path d="M57.8859 87.4039V33.4552H61.342V87.4039H57.8859ZM67.053 51.2625C66.8844 49.5625 66.1609 48.2419 64.8824 47.3006C63.6039 46.3593 61.8689 45.8887 59.6772 45.8887C58.188 45.8887 56.9306 46.0994 55.905 46.5209C54.8794 46.9283 54.0927 47.4973 53.5448 48.2278C53.0109 48.9584 52.744 49.7873 52.744 50.7145C52.7159 51.4872 52.8774 52.1616 53.2286 52.7376C53.5939 53.3136 54.0927 53.8124 54.7249 54.2339C55.3571 54.6413 56.0877 54.9995 56.9165 55.3086C57.7455 55.6037 58.6305 55.8565 59.5718 56.0673L63.4494 56.9945C65.332 57.416 67.06 57.978 68.6335 58.6804C70.207 59.3829 71.5698 60.2469 72.7218 61.2725C73.8739 62.2981 74.766 63.5063 75.3982 64.8972C76.0445 66.288 76.3746 67.8826 76.3887 69.6809C76.3746 72.3221 75.7003 74.6122 74.3656 76.5509C73.045 78.4757 71.1343 79.9719 68.6335 81.0396C66.1468 82.0933 63.1474 82.6202 59.6351 82.6202C56.1509 82.6202 53.1163 82.0863 50.5312 81.0186C47.9602 79.9508 45.9512 78.3703 44.5041 76.277C43.0711 74.1696 42.3195 71.5635 42.2492 68.4586H51.0791C51.1775 69.9057 51.5919 71.1139 52.3225 72.0833C53.0671 73.0386 54.0575 73.7622 55.2939 74.2539C56.5442 74.7316 57.9562 74.9704 59.5297 74.9704C61.0751 74.9704 62.4168 74.7456 63.5548 74.296C64.7068 73.8465 65.5989 73.2213 66.2311 72.4205C66.8634 71.6197 67.1795 70.6995 67.1795 69.6598C67.1795 68.6904 66.8914 67.8756 66.3154 67.2153C65.7535 66.555 64.9246 65.993 63.8287 65.5294C62.7469 65.0658 61.4193 64.6443 59.8458 64.265L55.1464 63.0848C51.5076 62.1997 48.6346 60.8159 46.5272 58.9333C44.4198 57.0507 43.3732 54.5148 43.3872 51.3257C43.3732 48.7125 44.0686 46.4296 45.4735 44.4767C46.8925 42.5239 48.8383 40.9996 51.3109 39.9037C53.7836 38.8079 56.5934 38.26 59.7404 38.26C62.9436 38.26 65.7394 38.8079 68.1278 39.9037C70.5302 40.9996 72.3987 42.5239 73.7334 44.4767C75.0681 46.4296 75.7565 48.6915 75.7986 51.2625H67.053Z" fill="white" fill-opacity="0.3"/>
<g filter="url(#filter1_d_366_14)">
<path d="M37.0708 82.7157C37.2123 82.5992 37.3626 82.4939 37.4916 82.3662C43.3137 76.5977 49.1346 70.8268 54.953 65.0533C55.062 64.9442 55.1384 64.8017 55.2461 64.653C59.0619 67.4896 62.7952 70.2642 66.5973 73.0908C71.0732 68.5602 75.5453 64.0334 79.9322 59.5934H76.6699V56.8163H85.0443V65.1128H82.2691V61.5364C77.0731 66.6556 71.9736 71.6806 66.8302 76.7489C63.0832 73.9644 59.3425 71.1836 55.5116 68.336C54.3531 69.5157 53.2148 70.7066 52.0438 71.8652C47.8309 76.0327 43.6068 80.1889 39.3889 84.3514C39.2925 84.4456 39.2186 84.5621 39.1334 84.6687H39.0395C38.3833 84.0491 37.727 83.4295 37.0708 82.8099C37.0708 82.7789 37.0708 82.7479 37.0708 82.7169L37.0708 82.7157Z" fill="white"/>
<path d="M73.8195 37.082C73.8195 45.2136 73.817 53.3441 73.827 61.4757C73.827 61.8562 73.7381 62.1325 73.4475 62.4051C72.2453 63.534 71.0718 64.6927 69.8871 65.839C69.7894 65.9331 69.6867 66.0211 69.5089 66.1835V37.082H73.8207H73.8195Z" fill="white"/>
<path d="M59.6307 64.425C58.2531 63.4014 56.9256 62.4262 55.6182 61.4249C55.4967 61.3319 55.4529 61.0767 55.4529 60.897C55.4441 55.8807 55.4454 50.8631 55.4454 45.8468V42.6807H59.6307V64.4262V64.425Z" fill="white"/>
<path d="M48.4321 67.5986V51.1519H52.6324V51.6377C52.6324 55.416 52.6287 59.1931 52.6387 62.9714C52.6387 63.2899 52.5523 63.5154 52.3218 63.741C51.0432 64.9901 49.7821 66.2553 48.4321 67.5986Z" fill="white"/>
<path d="M41.3149 59.5946H45.6017V60.0643C45.6017 63.3593 45.5967 66.6556 45.6092 69.9506C45.6092 70.2728 45.5128 70.4934 45.2811 70.714C44.0663 71.8714 42.8653 73.0449 41.6593 74.2123C41.5642 74.3052 41.4615 74.3895 41.3149 74.5208V59.5958V59.5946Z" fill="white"/>
<path d="M62.4769 59.5921H66.6735C66.6811 59.7483 66.6948 59.897 66.6948 60.0457C66.6948 62.8921 66.7024 65.7374 66.6836 68.5838C66.6823 68.849 66.5183 69.1129 66.4018 69.4612C65.0543 68.4586 63.8332 67.554 62.6197 66.637C62.5383 66.5763 62.4832 66.4288 62.4832 66.3223C62.4757 64.0966 62.4769 61.8698 62.4769 59.5921Z" fill="white"/>
</g>
</g>
<path d="M15.1987 124.804L11.3482 111.347H14.4562L16.6837 120.698H16.7954L19.2529 111.347H21.914L24.3649 120.717H24.4832L26.7107 111.347H29.8186L25.9682 124.804H23.1953L20.6327 116.006H20.5276L17.9716 124.804H15.1987ZM34.088 118.969V124.804H31.2888V111.347H34.0091V116.492H34.1274C34.3552 115.897 34.7231 115.43 35.2313 115.093C35.7394 114.751 36.3768 114.58 37.1434 114.58C37.8442 114.58 38.4553 114.734 38.9766 115.04C39.5023 115.342 39.9097 115.778 40.1988 116.348C40.4923 116.913 40.6368 117.59 40.6324 118.378V124.804H37.8333V118.877C37.8377 118.255 37.68 117.771 37.3602 117.425C37.0448 117.079 36.6024 116.906 36.0329 116.906C35.6518 116.906 35.3145 116.987 35.021 117.149C34.7319 117.311 34.5041 117.548 34.3377 117.859C34.1756 118.166 34.0924 118.536 34.088 118.969ZM45.7133 124.995C45.0693 124.995 44.4955 124.883 43.9917 124.66C43.488 124.432 43.0894 124.097 42.7959 123.654C42.5067 123.208 42.3622 122.651 42.3622 121.985C42.3622 121.425 42.4651 120.954 42.671 120.573C42.8769 120.192 43.1572 119.885 43.5121 119.653C43.8669 119.421 44.2699 119.245 44.7211 119.127C45.1767 119.009 45.6541 118.926 46.1535 118.877C46.7405 118.816 47.2136 118.759 47.5728 118.707C47.932 118.65 48.1926 118.566 48.3547 118.457C48.5168 118.347 48.5978 118.185 48.5978 117.971V117.931C48.5978 117.515 48.4664 117.193 48.2036 116.965C47.9451 116.738 47.5772 116.624 47.0997 116.624C46.5959 116.624 46.1951 116.735 45.8973 116.959C45.5994 117.178 45.4023 117.454 45.3059 117.787L42.717 117.576C42.8484 116.963 43.1069 116.433 43.4924 115.986C43.8778 115.535 44.375 115.189 44.9839 114.948C45.5972 114.703 46.3068 114.58 47.1128 114.58C47.6735 114.58 48.2102 114.646 48.7227 114.777C49.2396 114.909 49.6973 115.112 50.096 115.388C50.499 115.664 50.8166 116.019 51.0487 116.453C51.2809 116.882 51.397 117.397 51.397 117.997V124.804H48.7424V123.405H48.6635C48.5015 123.72 48.2846 123.998 48.013 124.239C47.7414 124.476 47.4151 124.662 47.034 124.798C46.6529 124.929 46.2126 124.995 45.7133 124.995ZM46.5149 123.063C46.9267 123.063 47.2903 122.982 47.6056 122.82C47.921 122.653 48.1685 122.43 48.3481 122.15C48.5277 121.869 48.6175 121.552 48.6175 121.197V120.126C48.5299 120.183 48.4095 120.235 48.2562 120.284C48.1072 120.327 47.9386 120.369 47.7502 120.408C47.5618 120.443 47.3735 120.476 47.1851 120.507C46.9968 120.533 46.8259 120.557 46.6726 120.579C46.3441 120.627 46.0571 120.704 45.8118 120.809C45.5665 120.914 45.376 121.057 45.2402 121.236C45.1044 121.412 45.0365 121.631 45.0365 121.893C45.0365 122.275 45.1745 122.566 45.4504 122.767C45.7308 122.964 46.0856 123.063 46.5149 123.063ZM58.9369 114.712V116.814H52.859V114.712H58.9369ZM54.2388 112.294H57.038V121.703C57.038 121.961 57.0774 122.163 57.1562 122.307C57.2351 122.448 57.3446 122.546 57.4848 122.603C57.6293 122.66 57.7958 122.689 57.9841 122.689C58.1156 122.689 58.247 122.678 58.3784 122.656C58.5098 122.629 58.6106 122.61 58.6806 122.597L59.1209 124.679C58.9807 124.723 58.7836 124.774 58.5295 124.831C58.2754 124.892 57.9666 124.929 57.603 124.942C56.9284 124.969 56.3371 124.879 55.8289 124.673C55.3252 124.467 54.9331 124.147 54.6528 123.714C54.3724 123.28 54.2344 122.732 54.2388 122.071V112.294ZM69.0312 117.59L66.4686 117.747C66.4248 117.528 66.3306 117.331 66.1861 117.156C66.0415 116.976 65.851 116.834 65.6144 116.729C65.3823 116.619 65.1041 116.565 64.7799 116.565C64.3463 116.565 63.9805 116.657 63.6826 116.841C63.3848 117.02 63.2358 117.261 63.2358 117.563C63.2358 117.804 63.3322 118.008 63.5249 118.174C63.7177 118.341 64.0484 118.474 64.5171 118.575L66.3438 118.943C67.325 119.145 68.0566 119.469 68.5384 119.916C69.0203 120.362 69.2612 120.949 69.2612 121.677C69.2612 122.338 69.0663 122.918 68.6764 123.418C68.2909 123.917 67.7609 124.307 67.0863 124.587C66.4161 124.863 65.6429 125.001 64.7668 125.001C63.4307 125.001 62.3663 124.723 61.5734 124.167C60.7849 123.606 60.3228 122.844 60.187 121.88L62.9401 121.736C63.0234 122.143 63.2249 122.454 63.5446 122.669C63.8644 122.879 64.274 122.984 64.7734 122.984C65.264 122.984 65.6582 122.89 65.9561 122.702C66.2584 122.509 66.4117 122.261 66.4161 121.959C66.4117 121.705 66.3044 121.497 66.0941 121.335C65.8838 121.168 65.5597 121.041 65.1216 120.954L63.3738 120.606C62.3882 120.408 61.6545 120.067 61.1726 119.581C60.6951 119.094 60.4564 118.474 60.4564 117.721C60.4564 117.073 60.6316 116.514 60.9821 116.045C61.3369 115.577 61.8341 115.215 62.4736 114.961C63.1175 114.707 63.871 114.58 64.7339 114.58C66.0087 114.58 67.0118 114.85 67.7434 115.388C68.4793 115.927 68.9086 116.661 69.0312 117.59ZM73.3958 124.804H70.347L74.9925 111.347H78.659L83.298 124.804H80.2491L76.8783 114.422H76.7732L73.3958 124.804ZM73.2053 119.515H80.4068V121.736H73.2053V119.515ZM84.8651 128.589V114.712H87.6248V116.407H87.7496C87.8723 116.135 88.0497 115.859 88.2819 115.579C88.5184 115.294 88.8251 115.058 89.2018 114.869C89.5829 114.677 90.056 114.58 90.6211 114.58C91.357 114.58 92.036 114.773 92.658 115.158C93.28 115.54 93.7772 116.116 94.1496 116.887C94.5219 117.653 94.7081 118.615 94.7081 119.771C94.7081 120.897 94.5263 121.847 94.1627 122.623C93.8035 123.394 93.3129 123.979 92.6908 124.377C92.0732 124.771 91.3811 124.969 90.6145 124.969C90.0713 124.969 89.6092 124.879 89.2281 124.699C88.8513 124.52 88.5425 124.294 88.3016 124.022C88.0607 123.746 87.8767 123.468 87.7496 123.188H87.6642V128.589H84.8651ZM87.6051 119.758C87.6051 120.358 87.6883 120.882 87.8548 121.328C88.0212 121.775 88.2622 122.123 88.5776 122.373C88.893 122.618 89.2762 122.741 89.7274 122.741C90.183 122.741 90.5685 122.616 90.8839 122.367C91.1993 122.112 91.438 121.762 91.6001 121.315C91.7666 120.864 91.8498 120.345 91.8498 119.758C91.8498 119.175 91.7687 118.663 91.6067 118.22C91.4446 117.778 91.2059 117.432 90.8905 117.182C90.5751 116.933 90.1874 116.808 89.7274 116.808C89.2719 116.808 88.8864 116.928 88.571 117.169C88.26 117.41 88.0212 117.752 87.8548 118.194C87.6883 118.637 87.6051 119.158 87.6051 119.758ZM96.5742 128.589V114.712H99.3339V116.407H99.4587C99.5814 116.135 99.7588 115.859 99.9909 115.579C100.227 115.294 100.534 115.058 100.911 114.869C101.292 114.677 101.765 114.58 102.33 114.58C103.066 114.58 103.745 114.773 104.367 115.158C104.989 115.54 105.486 116.116 105.859 116.887C106.231 117.653 106.417 118.615 106.417 119.771C106.417 120.897 106.235 121.847 105.872 122.623C105.513 123.394 105.022 123.979 104.4 124.377C103.782 124.771 103.09 124.969 102.324 124.969C101.78 124.969 101.318 124.879 100.937 124.699C100.56 124.52 100.252 124.294 100.011 124.022C99.7697 123.746 99.5858 123.468 99.4587 123.188H99.3733V128.589H96.5742ZM99.3142 119.758C99.3142 120.358 99.3974 120.882 99.5638 121.328C99.7303 121.775 99.9712 122.123 100.287 122.373C100.602 122.618 100.985 122.741 101.437 122.741C101.892 122.741 102.278 122.616 102.593 122.367C102.908 122.112 103.147 121.762 103.309 121.315C103.476 120.864 103.559 120.345 103.559 119.758C103.559 119.175 103.478 118.663 103.316 118.22C103.154 117.778 102.915 117.432 102.6 117.182C102.284 116.933 101.896 116.808 101.437 116.808C100.981 116.808 100.595 116.928 100.28 117.169C99.969 117.41 99.7303 117.752 99.5638 118.194C99.3974 118.637 99.3142 119.158 99.3142 119.758Z" fill="white"/>
<path d="M37.9698 132.608V142.115H35.9596V132.608H37.9698ZM47.576 132.608V142.115H45.8398L41.7034 136.131H41.6338V142.115H39.6236V132.608H41.3877L45.4916 138.587H45.5752V132.608H47.576ZM50.9545 132.608L53.2525 139.831H53.3407L55.6433 132.608H57.8717L54.5941 142.115H52.0037L48.7215 132.608H50.9545ZM59.016 142.115V132.608H65.4225V134.265H61.0262V136.531H65.0929V138.188H61.0262V140.458H65.4411V142.115H59.016ZM72.1783 135.342C72.1412 134.968 71.9818 134.677 71.7001 134.469C71.4185 134.262 71.0363 134.158 70.5535 134.158C70.2254 134.158 69.9484 134.205 69.7225 134.298C69.4966 134.387 69.3232 134.513 69.2025 134.674C69.0849 134.835 69.0261 135.017 69.0261 135.221C69.0199 135.392 69.0555 135.54 69.1329 135.667C69.2134 135.794 69.3232 135.904 69.4625 135.997C69.6018 136.087 69.7627 136.165 69.9453 136.234C70.1279 136.299 70.3229 136.354 70.5303 136.401L71.3845 136.605C71.7992 136.698 72.1799 136.822 72.5265 136.976C72.8731 137.131 73.1733 137.321 73.4271 137.547C73.6809 137.773 73.8774 138.039 74.0167 138.346C74.1591 138.652 74.2318 139.003 74.2349 139.4C74.2318 139.981 74.0832 140.486 73.7892 140.913C73.4983 141.337 73.0774 141.667 72.5265 141.902C71.9787 142.134 71.3179 142.25 70.5442 142.25C69.7767 142.25 69.1081 142.132 68.5387 141.897C67.9723 141.662 67.5297 141.314 67.211 140.853C66.8953 140.388 66.7297 139.814 66.7142 139.13H68.6594C68.6811 139.449 68.7724 139.715 68.9333 139.929C69.0973 140.139 69.3155 140.299 69.5879 140.407C69.8633 140.512 70.1743 140.565 70.521 140.565C70.8614 140.565 71.157 140.515 71.4077 140.416C71.6615 140.317 71.858 140.18 71.9973 140.003C72.1365 139.827 72.2062 139.624 72.2062 139.395C72.2062 139.181 72.1427 139.002 72.0158 138.856C71.892 138.711 71.7094 138.587 71.468 138.485C71.2297 138.383 70.9372 138.29 70.5906 138.207L69.5554 137.947C68.7538 137.752 68.1209 137.447 67.6566 137.032C67.1924 136.617 66.9618 136.059 66.9649 135.356C66.9618 134.78 67.115 134.278 67.4245 133.847C67.7371 133.417 68.1657 133.081 68.7105 132.84C69.2552 132.599 69.8741 132.478 70.5674 132.478C71.273 132.478 71.8889 132.599 72.4151 132.84C72.9443 133.081 73.3559 133.417 73.6499 133.847C73.944 134.278 74.0956 134.776 74.1049 135.342H72.1783ZM75.2249 134.265V132.608H83.0333V134.265H80.1226V142.115H78.1356V134.265H75.2249Z" fill="white"/>
<rect x="86.5701" y="136.262" width="12.3308" height="1.74306" rx="0.871529" fill="#05E8EB"/>
<rect x="20.3362" y="136.262" width="12.3308" height="1.74306" rx="0.871529" fill="#05E8EB"/>
<path d="M106.046 110.57V110.216H107.712V110.57H107.091V112.245H106.667V110.57H106.046ZM107.986 110.216H108.515L109.074 111.579H109.097L109.656 110.216H110.185V112.245H109.769V110.924H109.752L109.227 112.235H108.944L108.419 110.919H108.402V112.245H107.986V110.216Z" fill="white"/>
<defs>
<filter id="filter0_d_366_14" x="0.924166" y="0.0594196" width="120.383" height="121.631" filterUnits="userSpaceOnUse" color-interpolation-filters="sRGB">
<feFlood flood-opacity="0" result="BackgroundImageFix"/>
<feColorMatrix in="SourceAlpha" type="matrix" values="0 0 0 0 0 0 0 0 0 0 0 0 0 0 0 0 0 0 127 0" result="hardAlpha"/>
<feOffset/>
<feGaussianBlur stdDeviation="9.97029"/>
<feComposite in2="hardAlpha" operator="out"/>
<feColorMatrix type="matrix" values="0 0 0 0 0 0 0 0 0 0 0 0 0 0 0 0 0 0 1 0"/>
<feBlend mode="normal" in2="BackgroundImageFix" result="effect1_dropShadow_366_14"/>
<feBlend mode="normal" in="SourceGraphic" in2="effect1_dropShadow_366_14" result="shape"/>
</filter>
<filter id="filter1_d_366_14" x="28.739" y="28.7502" width="64.6371" height="64.2503" filterUnits="userSpaceOnUse" color-interpolation-filters="sRGB">
<feFlood flood-opacity="0" result="BackgroundImageFix"/>
<feColorMatrix in="SourceAlpha" type="matrix" values="0 0 0 0 0 0 0 0 0 0 0 0 0 0 0 0 0 0 127 0" result="hardAlpha"/>
<feOffset/>
<feGaussianBlur stdDeviation="4.16591"/>
<feComposite in2="hardAlpha" operator="out"/>
<feColorMatrix type="matrix" values="0 0 0 0 0 0 0 0 0 0 0 0 0 0 0 0 0 0 0.6 0"/>
<feBlend mode="normal" in2="BackgroundImageFix" result="effect1_dropShadow_366_14"/>
<feBlend mode="normal" in="SourceGraphic" in2="effect1_dropShadow_366_14" result="shape"/>
</filter>
<linearGradient id="paint0_linear_366_14" x1="87.4507" y1="5.18398" x2="33.3405" y2="96.6742" gradientUnits="userSpaceOnUse">
<stop stop-color="#05E8EB"/>
<stop offset="1" stop-color="#038385"/>
</linearGradient>
</defs>
</svg>
